<svg width="79" height="43" viewBox="0 0 79 43" fill="none" xmlns="http://www.w3.org/2000/svg">
    <path fill-rule="evenodd" clip-rule="evenodd" d="M14.8138 4.31026C14.8138 1.89766 16.6401 0.119629 19.0181 0.119629C21.4385 0.119629 23.2224 1.94006 23.2224 4.31026C23.2224 6.68047 21.396 8.45849 19.0181 8.45849C16.6401 8.45849 14.8138 6.72287 14.8138 4.31026ZM78.9081 10.5383V34.2867L78.9065 34.2851L78.9115 42.8791C73.74 42.8791 71.3593 40.4305 71.3593 35.5333V31.9291C69.6821 33.6386 67.3498 34.6554 64.744 34.6554C62.1383 34.6554 59.8934 33.9731 58.0162 32.4868C56.6292 33.8491 54.7094 34.3925 52.7555 34.5942C50.7416 34.8026 48.5876 34.6009 47.1522 33.9726C44.6398 32.8715 42.4658 30.4345 42.4658 26.7525V21.2998C42.4658 18.8512 40.9287 17.2343 38.553 17.2343C35.9439 17.2343 34.2201 18.8975 34.2201 21.3924V34.0983H26.6729V10.535H34.2201V12.891C35.9723 10.9715 38.2713 10.001 40.9821 9.98113C45.9702 9.94311 50.0147 13.9921 50.0147 18.9389V25.0893C50.0381 26.1887 50.84 27.1493 52.067 27.146C52.8705 27.1344 53.4841 26.9294 54.0275 26.5855C53.6058 25.2662 53.3774 23.8327 53.3774 22.3183C53.3774 15.2966 58.2705 9.98279 64.7457 9.98279C67.4015 9.98279 69.6838 10.9996 71.3609 12.7091V10.5383H78.9081ZM61.158 22.3199C61.158 25.2314 63.3003 27.4023 66.2361 27.4023C69.1703 27.4023 71.3609 25.2314 71.3609 22.3199C71.3609 19.4084 69.172 17.2376 66.2361 17.2376C63.3003 17.2376 61.158 19.4084 61.158 22.3199ZM23.1868 17.7386V21.2618L23.1868 34.1007H15.6396L15.6396 18.9588L15.6346 10.5581C20.8062 10.5581 23.1868 12.9516 23.1868 17.7386ZM8.44561 8.15537L8.44561 11.7596V19.5349H8.44015V25.1859H8.44181C8.44181 26.5268 9.23371 27.2658 10.7241 27.2658H12.1679V34.104H9.55881C3.78212 34.104 0.892944 31.5165 0.892944 26.4342V11.4341L0.898413 11.4341L0.898413 9.40364L0.893413 0.809631C6.06492 0.809631 8.44561 3.25821 8.44561 8.15537Z" fill="#00392C"/>
</svg>
